<?xml version="1.0" standalone="no"?>
<!DOCTYPE svg PUBLIC "-//W3C//DTD SVG 20010904//EN"
 "http://www.w3.org/TR/2001/REC-SVG-20010904/DTD/svg10.dtd">
<svg version="1.0" xmlns="http://www.w3.org/2000/svg"
 width="1920.000000pt" height="1080.000000pt" viewBox="0 0 1920.000000 1080.000000"
 preserveAspectRatio="xMidYMid meet">
<metadata>
Created by potrace 1.16, written by Peter Selinger 2001-2019
</metadata>
<g transform="translate(0.000000,1080.000000) scale(0.100000,-0.100000)"
fill="#000000" stroke="none">
<path d="M1755 6659 c-572 -550 -1077 -1037 -1123 -1083 l-83 -82 1129 -1173
c622 -645 1133 -1173 1137 -1173 4 0 511 484 1127 1077 l1119 1078 -34 36
c-53 56 -2123 2210 -2181 2268 l-51 53 -1040 -1001z"/>
<path d="M4983 7023 c-19 -7 -16 -23 12 -81 14 -29 25 -54 25 -57 0 -2 14 -34
30 -70 17 -36 30 -67 30 -70 0 -2 13 -32 29 -67 16 -35 50 -112 76 -173 26
-60 58 -132 70 -160 12 -27 44 -99 70 -160 55 -129 106 -245 146 -333 16 -35
29 -65 29 -68 0 -2 16 -38 35 -80 19 -41 35 -77 35 -79 0 -3 14 -34 30 -70 17
-36 30 -67 30 -70 0 -2 13 -32 29 -67 16 -35 44 -99 64 -143 19 -44 51 -116
70 -160 65 -146 162 -384 388 -952 123 -310 226 -563 229 -563 3 0 106 253
229 563 123 309 235 587 248 617 14 30 30 69 38 85 7 17 50 116 95 220 45 105
95 218 111 253 16 35 29 65 29 67 0 3 14 34 30 70 17 36 30 67 30 70 0 2 13
32 29 67 16 35 66 149 111 253 83 192 133 306 176 403 13 29 24 54 24 57 0 2
13 32 29 67 16 35 57 128 91 208 74 172 86 200 134 306 40 91 43 109 20 118
-9 3 -117 6 -240 6 -213 0 -264 -6 -264 -30 0 -5 -16 -43 -35 -84 -19 -42 -35
-78 -35 -80 0 -3 -13 -33 -29 -68 -16 -35 -66 -148 -111 -253 -45 -104 -95
-218 -111 -253 -16 -35 -29 -65 -29 -68 0 -4 -55 -130 -111 -252 -16 -35 -29
-65 -29 -67 0 -3 -13 -34 -30 -70 -16 -36 -30 -67 -30 -70 0 -2 -13 -32 -29
-67 -16 -35 -41 -92 -56 -128 -15 -36 -40 -93 -56 -128 -16 -35 -29 -65 -29
-68 0 -2 -18 -43 -40 -90 -22 -47 -40 -88 -40 -91 0 -2 -8 -23 -19 -46 -10
-23 -29 -67 -41 -97 -13 -30 -28 -61 -35 -68 -12 -13 -19 -1 -86 158 -17 41
-42 99 -55 128 -13 29 -24 55 -24 57 0 2 -11 29 -25 60 -14 30 -36 80 -50 110
-14 31 -25 58 -25 60 0 2 -11 28 -24 57 -13 29 -36 82 -51 118 -15 36 -40 93
-56 128 -16 35 -29 65 -29 67 0 3 -11 28 -24 57 -13 29 -42 96 -64 148 -48
113 -268 626 -282 655 -5 11 -18 40 -28 65 -11 25 -32 74 -47 110 -45 105 -29
100 -319 99 -138 0 -257 -3 -263 -6z"/>
<path d="M8638 6375 c-240 -39 -438 -143 -601 -315 -176 -186 -262 -401 -274
-686 -16 -394 138 -721 438 -925 385 -261 1018 -268 1389 -16 51 35 170 146
170 159 0 5 -59 76 -131 158 l-130 149 -66 -54 c-128 -106 -269 -160 -444
-171 -166 -11 -333 26 -460 102 -111 66 -215 204 -253 332 l-15 52 820 0 819
0 0 144 c0 82 -6 181 -15 232 -74 431 -365 737 -789 831 -99 21 -348 26 -458
8z m351 -400 c206 -49 379 -221 425 -422 l14 -63 -584 0 c-503 0 -584 2 -584
14 0 39 54 178 90 233 75 114 213 210 343 238 84 18 218 18 296 0z"/>
<path d="M11372 6380 c-194 -27 -367 -105 -484 -219 l-48 -45 0 127 0 127
-240 0 -240 0 0 -1045 0 -1045 249 0 250 0 4 608 c4 675 2 657 74 794 66 126
183 216 333 255 96 25 257 22 338 -6 120 -41 201 -110 252 -215 57 -116 60
-156 60 -827 l0 -609 250 0 250 0 0 664 c0 416 -4 694 -11 743 -47 349 -263
590 -602 674 -94 23 -331 34 -435 19z"/>
<path d="M13744 6375 c-595 -92 -963 -616 -869 -1238 52 -343 252 -613 569
-767 187 -91 382 -127 641 -117 254 10 436 65 613 186 71 48 164 139 160 156
-2 7 -60 79 -131 159 l-127 146 -70 -59 c-82 -68 -164 -111 -275 -142 -105
-30 -324 -33 -425 -6 -189 51 -342 168 -413 317 -19 41 -39 92 -42 113 l-7 37
815 0 815 0 4 78 c34 608 -318 1061 -887 1142 -94 13 -271 11 -371 -5z m345
-400 c188 -45 349 -188 410 -366 10 -30 21 -69 24 -86 l7 -33 -585 0 c-322 0
-585 3 -585 6 0 3 7 34 16 68 20 77 72 177 124 238 70 81 200 155 315 178 67
13 206 11 274 -5z"/>
<path d="M16515 6383 c-217 -25 -371 -91 -497 -212 l-78 -74 0 137 0 136 -240
0 -240 0 0 -1045 0 -1045 249 0 250 0 4 588 c4 646 2 631 69 771 88 186 317
304 560 288 l88 -6 0 235 0 234 -67 -1 c-38 -1 -81 -4 -98 -6z"/>
<path d="M17565 6384 c-16 -2 -66 -9 -110 -15 -184 -24 -366 -84 -505 -166
-127 -75 -126 -46 -15 -252 53 -100 99 -181 102 -181 3 0 36 20 73 45 285 190
727 215 932 53 79 -62 138 -195 138 -309 l0 -59 -332 0 c-455 0 -576 -17 -756
-106 -218 -107 -325 -300 -309 -559 9 -157 65 -274 186 -387 130 -123 302
-185 541 -195 291 -12 503 52 647 195 l53 52 0 -110 0 -110 240 0 240 0 0 613
c0 612 -7 788 -36 901 -78 311 -277 494 -619 568 -87 18 -393 33 -470 22z
m615 -1336 c0 -144 -12 -176 -96 -268 -117 -126 -323 -190 -514 -161 -183 29
-292 129 -294 270 -2 123 76 224 196 255 90 23 93 23 416 25 l292 1 0 -122z"/>
</g>
</svg>
